<svg width="162" height="165" viewBox="0 0 162 165" fill="none" xmlns="http://www.w3.org/2000/svg">
<defs>
<style>
  .bg-circle    { stroke: #3D2E2B; fill: #FAF7F6; }
  .bead-1       { fill: #ECC0BB; }
  .bead-2       { fill: #D99B95; }
  .bead-3       { fill: #B76E79; }
  .bead-4       { fill: #B76E79; }
  .bead-5       { fill: #8A4450; }
  .bead-6       { fill: #B76E79; }
  .bead-7       { fill: #D99B95; }
  .bead-8       { fill: #E8B7B1; }
  .bead-9       { fill: #ECC0BB; }
  .bead-10      { fill: #F3CFCB; }
  .thread       { fill: #F3CFCB; }
  .clasp        { fill: #6E5F5B; }

  @media (prefers-color-scheme: dark) {
    .bg-circle { stroke: #7D5560; fill: #1E1A19; }
    .bead-1    { fill: #ECC0BB; }
    .bead-2    { fill: #D99B95; }
    .bead-3    { fill: #B76E79; }
    .bead-4    { fill: #B76E79; }
    .bead-5    { fill: #CC909A; }
    .bead-6    { fill: #D99B95; }
    .bead-7    { fill: #E8B7B1; }
    .bead-8    { fill: #ECC0BB; }
    .bead-9    { fill: #F3CFCB; }
    .bead-10   { fill: #F4E7E3; }
    .thread    { fill: #F3CFCB; }
    .clasp     { fill: #9A8A86; }
  }
</style>
</defs>
<g clip-path="url(#clip)">
<path class="thread" d="M53.5 50.5C54 49.5 56 45.5 57 44.5C60.0965 41.6947 59.5881 41.5548 63.5136 39.7799C71.2939 36.2619 81.3139 35.9322 89.3327 38.8795C91.0598 39.5188 92.0021 39.6758 93.5235 40.8625C93.7492 41.1857 93.9419 41.4564 94.1921 41.7658L93.9755 42.0183C91.4153 40.54 89.9312 39.9343 87.0611 39.1286C80.7976 37.0336 73.1726 37.4614 67.0737 40.0836C64.6302 41.1344 61.5272 44.1388 59.6152 46.0159C56.5 50 57 53.5 56.5 55.5C56.1271 56.8028 55.602 54.5356 56.5 55.5C55.0143 56.1322 52.5 56.5 52.5 56.5C52.6044 55.4941 53 52 53.5 50.5Z"/>
<path class="bg-circle" d="M79 8.5C119.593 8.5 152.5 41.4071 152.5 82C152.5 122.593 119.593 155.5 79 155.5C38.4071 155.5 5.5 122.593 5.5 82C5.5 41.4071 38.4071 8.5 79 8.5Z" stroke-width="3"/>
<circle class="bead-9"  cx="66" cy="70" r="6"/>
<circle class="bead-10" cx="56" cy="61" r="6"/>
<circle class="bead-8"  cx="78" cy="76" r="6"/>
<circle class="bead-7"  cx="89" cy="82" r="6"/>
<circle class="bead-6"  cx="100" cy="89" r="6"/>
<circle class="bead-5"  cx="103" cy="102" r="6"/>
<circle class="bead-4"  cx="97" cy="114" r="6"/>
<circle class="bead-3"  cx="85" cy="121" r="6"/>
<circle class="bead-2"  cx="71" cy="121" r="6"/>
<circle class="bead-1"  cx="59" cy="116" r="6"/>
<path class="clasp" d="M93.5234 40.8624C98.2358 43.7642 104.384 48.0977 106.497 53.4442L106.364 53.5006C105.305 52.7843 105.081 52.3595 104.317 51.3526C102.753 48.669 99.2721 45.9237 96.8422 43.9632C95.9887 43.2747 94.8514 42.7863 93.9754 42.0183L94.192 41.7658C93.9419 41.4563 93.7492 41.1856 93.5234 40.8624Z"/>
</g>
<defs>
<clipPath id="clip"><rect width="162" height="164.531" fill="white"/></clipPath>
</defs>
</svg>