<svg width="500" height="560" viewBox="0 0 500 560" fill="none" xmlns="http://www.w3.org/2000/svg">
<defs>

<filter id="filter0_dd_22_158" x="0" y="7" width="158" height="158" filterUnits="userSpaceOnUse" color-interpolation-filters="sRGB">
<feFlood flood-opacity="0" result="BackgroundImageFix"/>
<feColorMatrix in="SourceAlpha" type="matrix" values="0 0 0 0 0 0 0 0 0 0 0 0 0 0 0 0 0 0 127 0" result="hardAlpha"/>
<feOffset dy="4"/>
<feGaussianBlur stdDeviation="2"/>
<feComposite in2="hardAlpha" operator="out"/>
<feColorMatrix type="matrix" values="0 0 0 0 0 0 0 0 0 0 0 0 0 0 0 0 0 0 0.25 0"/>
<feBlend mode="normal" in2="BackgroundImageFix" result="effect1_dropShadow_22_158"/>
<feColorMatrix in="SourceAlpha" type="matrix" values="0 0 0 0 0 0 0 0 0 0 0 0 0 0 0 0 0 0 127 0" result="hardAlpha"/>
<feOffset dy="4"/>
<feGaussianBlur stdDeviation="2"/>
<feComposite in2="hardAlpha" operator="out"/>
<feColorMatrix type="matrix" values="0 0 0 0 0 0 0 0 0 0 0 0 0 0 0 0 0 0 0.25 0"/>
<feBlend mode="normal" in2="effect1_dropShadow_22_158" result="effect2_dropShadow_22_158"/>
<feBlend mode="normal" in="SourceGraphic" in2="effect2_dropShadow_22_158" result="shape"/>
</filter>
<clipPath id="clip0_22_158">
<rect width="162" height="164.531" fill="white"/>
</clipPath>


<clipPath id="wm_clip">
<rect x="0.5" y="0.5" width="334" height="180" fill="white"/>
</clipPath>

</defs>
<rect width="500" height="560" fill="#1E1A19"/>
<g transform="translate(104 30) scale(1.8)">

<g clip-path="url(#clip0_22_158)">
<path d="M53.5 50.5C54 49.5 56 45.5 57 44.5C60.0965 41.6947 59.5881 41.5548 63.5136 39.7799C71.2939 36.2619 81.3139 35.9322 89.3327 38.8795C91.0598 39.5188 92.0021 39.6758 93.5235 40.8625C93.7492 41.1857 93.9419 41.4564 94.1921 41.7658L93.9755 42.0183C91.4153 40.54 89.9312 39.9343 87.0611 39.1286C80.7976 37.0336 73.1726 37.4614 67.0737 40.0836C64.6302 41.1344 61.5272 44.1388 59.6152 46.0159C56.5 50 57 53.5 56.5 55.5C56.1271 56.8028 55.602 54.5356 56.5 55.5C55.0143 56.1322 52.5 56.5 52.5 56.5C52.6044 55.4941 53 52 53.5 50.5Z" fill="#F3CFCB" fill-opacity="0.988235"/>
<circle cx="66" cy="70" r="6" fill="#F3CFCB"/>
<circle cx="56" cy="61" r="6" fill="#F4E7E3"/>
<g filter="url(#filter0_dd_22_158)">
<path d="M79 8.5C119.593 8.5 152.5 41.4071 152.5 82C152.5 122.593 119.593 155.5 79 155.5C38.4071 155.5 5.5 122.593 5.5 82C5.5 41.4071 38.4071 8.5 79 8.5Z" stroke="#9A7680" stroke-width="3" shape-rendering="crispEdges"/>
</g>
<circle cx="78" cy="76" r="6" fill="#ECC0BB"/>
<circle cx="89" cy="82" r="6" fill="#E8B7B1"/>
<circle cx="100" cy="89" r="6" fill="#D99B95"/>
<circle cx="103" cy="102" r="6" fill="#CC909A"/>
<circle cx="97" cy="114" r="6" fill="#B76E79"/>
<circle cx="85" cy="121" r="6" fill="#B76E79"/>
<circle cx="71" cy="121" r="6" fill="#D99B95"/>
<circle cx="59" cy="116" r="6" fill="#ECC0BB"/>
<path d="M93.5236 40.8624C98.236 43.7642 104.384 48.0977 106.497 53.4442L106.364 53.5006C105.305 52.7843 105.081 52.3595 104.317 51.3526C102.753 48.669 99.2722 45.9237 96.8423 43.9632C95.9888 43.2747 94.8515 42.7863 93.9755 42.0183L94.1921 41.7658C93.942 41.4563 93.7493 41.1856 93.5236 40.8624Z" fill="#6E5F5B" fill-opacity="0.980392"/>
</g>


</g>
<g transform="translate(49 340) scale(1.2)">

<g clip-path="url(#wm_clip)">
<path d="M17.7005 154.801C17.1088 156.2 16.4614 157.377 15.2556 158.337C14.0733 159.295 12.5587 159.716 11.0651 159.5C6.62932 158.842 4.74336 152.387 8.5367 149.953C13.9645 146.471 15.5013 149.839 18.0306 153.844C26.6297 154.013 35.7109 153.854 44.3386 153.856L93.9249 153.851L223.075 153.709L278.364 153.747C289.626 153.646 300.89 153.64 312.154 153.728C313.675 154.147 315.242 153.784 316.707 154.11L316.681 154.322C315.886 154.791 315.637 154.542 314.987 154.741C305.826 155.165 296.586 154.807 287.415 154.992C286.599 155.009 285.865 155.023 285.053 155.135C281.97 155.259 278.491 155.156 275.371 155.166L256.957 155.155L223.673 154.957L98.6734 154.767L49.5518 154.735L30.2121 154.719C26.1133 154.715 21.7802 154.627 17.7005 154.801Z" fill="#DDB0AA"/>
<circle cx="158" cy="78" r="3.5" fill="#DDB0AA"/>
<path d="M24.4728 72.754L24.7871 72.8839C25.4108 72.5582 26.4585 71.8724 27.0447 72.0537C27.1643 72.5047 27.1397 72.5835 27.0521 73.046C26.5414 73.2309 25.3472 74.3309 25.1792 74.9286C22.2652 78.1902 21.1093 79.5544 21.0865 84.3229C21.0727 87.183 23.4702 91.8846 25.4236 93.7335C29.4426 98.6481 34.6901 102.812 38.7816 107.662C42.3875 111.937 42.8623 118.129 41.3885 123.44C38.5108 129.437 36.1415 132.678 29.6658 135.195C29.9935 134.799 30.055 134.737 30.2063 134.246C29.9539 133.641 29.9065 133.765 29.2377 133.352C30.2909 132.775 31.6441 131.754 32.5473 130.95C33.968 129.559 36.1226 126.628 36.5226 124.716C38.4146 115.67 31.2104 108.412 24.85 103.436C22.3249 101.461 19.6872 97.9034 18.1037 95.2376C15.8101 91.3768 15.8636 85.9204 16.7768 81.6728C17.4623 78.5593 21.8072 74.2495 24.4728 72.754Z" fill="#F4E7E3"/>
<path d="M261.033 65.0373C262.238 64.9197 265.093 64.3679 265.887 64.4161C266.663 65.7859 263.777 76.4478 263.342 78.972C262.052 84.333 260.724 89.5273 259.21 94.8297C258.234 98.2513 257.508 102.061 256.697 105.563C256.312 106.349 255.771 109.795 256.31 110.457C256.949 110.183 257.109 108.999 257.827 108.141C258.807 106.976 259.807 105.965 260.803 104.84L260.521 106.038C261.078 105.874 261.355 105.548 261.839 105.544C259.638 107.959 257.437 110.519 256.089 113.562C254.286 115.248 251.092 127.862 249.625 130.312C249.297 130.858 245.739 130.656 244.84 130.647C245.83 127.066 247.031 123.837 248.058 120.345C249.728 114.664 251.271 108.845 253.073 103.188C253.288 102.512 253.479 101.546 253.604 100.847C254.644 95.0236 256.468 89.3814 257.525 83.5687C258.045 80.2337 258.965 76.9779 259.554 73.6542C259.906 71.6684 259.956 69.6955 260.288 67.7079C259.219 67.5634 257.326 67.484 256.625 66.6694L256.661 66.3335C257.504 65.4693 259.796 65.2378 261.033 65.0373Z" fill="#F4E7E3"/>
<path d="M209.506 66.9271C211.456 66.0781 213.009 66.1472 215.083 65.9041C216.404 65.7492 219.632 64.2628 220.797 64.9556C221.02 66.2767 218.663 76.2059 218.21 78.2418C216.603 85.9688 214.442 93.8459 212.856 101.638C212.107 105.322 210.939 109.011 210.141 112.802C210.42 112.555 211.457 111.572 211.722 111.5C211.686 112.112 211.526 112.197 211.006 112.51C210.899 113.375 211.318 113.414 211.722 114.15C209.947 117.715 207.904 121.35 206.418 125.061C205.614 126.612 205.795 129.301 204.913 130.642C204.47 131.318 201.178 130.713 200.441 129.987C199.9 128.858 202.826 121.24 203.43 119.367C207.848 105.667 210.877 91.558 213.942 77.49C214.622 74.369 214.708 70.8977 215.423 67.6935C213.368 67.5497 211.5 67.4944 209.506 66.9271Z" fill="#F4E7E3"/>
<path d="M91.7499 129.898C92.7078 126.672 94.0531 123.779 95.1796 120.554C95.8298 118.693 96.3923 116.929 97.0929 114.745C98.6134 110.004 101.785 102.797 100.297 97.8079C100.229 97.5815 99.763 97.1934 99.5457 97.1802C96.1665 96.9763 93.2657 102.13 90.8627 103.674L90.637 103.614C91.6919 98.526 103.75 89.6299 105.294 97.1415C105.987 102.509 104.898 107.514 103.256 112.602C103.889 111.842 104.483 111.061 105.254 110.452C105.23 110.847 105.155 111.084 105.008 111.45L105.125 111.606C105.589 111.487 105.857 111.409 106.315 111.237C102.298 116.874 100.428 123.656 97.1488 129.577C96.5299 130.694 92.9107 130.116 91.7499 129.898Z" fill="#F4E7E3"/>
<path d="M145.236 97.5109C144.707 97.2646 144.669 97.3634 144.49 96.9185C145.549 94.9865 154.376 94.7508 156.525 94.8401C155.713 97.3703 154.925 99.9186 154.014 102.414C152.384 106.877 145.808 122.295 147.851 126.481C148.051 126.889 148.373 127.214 148.811 127.338C149.48 127.528 150.321 127.188 150.875 126.812C151.491 126.394 152.044 125.806 152.582 125.288L152.937 125.88C152.802 126.437 152.026 127.275 151.632 127.762C152.063 127.353 152.677 126.73 153.145 126.415L153.348 126.535C151.368 128.821 148.285 131.523 145.031 130.823C144.418 130.691 143.432 130.023 143.207 129.389C141.342 124.136 143.748 117.873 145.029 112.687C145.85 109.757 147.468 106.533 148.314 103.628C148.912 101.575 149.096 99.8662 149.648 97.9227C148.311 97.6991 146.574 97.4617 145.236 97.5109Z" fill="#F4E7E3"/>
<path d="M167.806 110.103C170.484 104.455 175.314 99.2361 180.923 96.6597C180.641 97.1009 180.385 97.3821 180.394 97.8928C180.81 98.2552 180.729 98.1513 181.332 98.2563C176.459 101.019 172.948 107.761 172.119 113.215C171.497 117.307 171.046 121.693 173.936 125.03C177.628 128.634 181.564 127.721 185.988 126.229C185.437 126.989 185.064 127.676 185.772 128.531C177.815 133.747 166.121 131.633 165.745 120.342C165.603 116.1 166.281 113.992 167.806 110.103Z" fill="#F4E7E3"/>
<path d="M271.997 94.8113C273.993 93.9305 277.082 94.0233 279.19 94.509C279.888 94.7484 280.115 95.2295 280.441 95.8989C280.577 96.1785 280.707 96.461 280.833 96.746C280.494 100.599 278.835 103.172 275.9 105.481C273.072 107.706 268.191 111.385 265.131 112.991C266.959 115.09 268.629 117.635 270.285 119.895C273.009 123.609 273.983 126.975 278.816 127.949C279.819 127.563 280.654 127.044 281.508 126.379C283.419 125.02 283.97 124.386 285.559 123.144C284.539 125.216 283.175 127.281 281.319 128.676C281.3 128.693 281.281 128.709 281.262 128.726C272.598 135.624 267.535 123.889 263.447 118.683L263.349 118.56C262.375 116.752 260.535 114.684 259.889 113.266C260.346 112.154 271.892 107.793 274.991 102.03C275.66 100.785 276.168 98.8538 275.776 97.4454C275.165 95.9163 273.498 96.2313 272.208 96.4424C272.34 96.1068 272.462 95.8359 272.613 95.5097C272.495 95.0402 272.464 95.1402 271.997 94.8113Z" fill="#F4E7E3"/>
<path d="M281.508 126.379C283.418 125.019 283.97 124.386 285.559 123.144C284.539 125.216 283.174 127.281 281.319 128.676C281.087 127.727 282.831 126.639 283.501 125.869C282.374 125.873 282.489 126.708 281.508 126.379Z" fill="#F4E7E3"/>
<path d="M118.92 96.5847C119.398 96.2625 119.888 95.9598 120.389 95.6771C123.11 94.1554 128.368 92.7687 130.161 96.2477C130.185 97.7347 130.238 99.9926 129.781 101.417C128.646 104.96 126.867 108.411 125.833 112.004C124.983 114.956 119.522 125.877 124.074 127.346C124.261 128.341 124.241 128.612 125.043 129.22C123.144 130.419 122.689 130.526 120.492 130.94C119.883 130.804 119.176 130.693 118.614 130.416C113.361 127.829 123.788 105.402 124.6 100.836C124.798 99.7233 124.763 98.8048 124.414 97.7315C123.407 95.8905 121.347 97.1804 119.951 97.8131L119.899 97.715C119.538 97.0474 119.605 96.9445 118.92 96.5847Z" fill="#F4E7E3"/>
<path d="M64.6921 98.917C64.9838 99.5169 65.2003 99.9689 65.8695 100.224C63.0882 103.417 60.5686 107.977 59.7515 112.171C59.5377 112.81 59.4613 112.698 59.6554 113.197C60.0618 113.274 60.1185 113.294 60.5241 113.253C60.4232 113.789 60.3275 113.788 60.5454 114.186C61.0208 114.258 61.4656 114.306 61.9427 114.357C58.4134 115.327 57.8906 115.733 57.8243 119.549C57.7715 122.576 58.5766 125.584 61.4057 127.091C64.9012 128.954 69.0354 127.797 72.3918 126.345C72.3115 127.024 72.226 127.493 72.316 128.175C72.599 128.525 72.4698 128.414 72.9431 128.557C70.7573 130.78 62.8131 131.678 59.7528 130.954C53.283 129.423 50.9469 124.328 52.2937 117.865C52.6595 116.324 52.8816 115.549 53.3775 113.999C55.522 108.95 57.1762 106.032 61.1571 102.31C62.4006 101.147 63.182 100.06 64.6921 98.917Z" fill="#F4E7E3"/>
<path d="M231.936 93.9769C235.872 93.8656 236.501 94.4538 236.66 98.7079C236.74 100.852 236.444 102.818 235.865 104.869C234.927 108.68 227.494 124.691 229.568 127.234C230.553 127.843 231.614 127.038 232.477 126.489C233.281 127.054 233.552 127.698 233.937 127.889C231.891 130.028 229.285 131.608 226.299 130.767C226.116 130.735 225.936 130.694 225.759 130.644C224.203 130.194 224.13 126.608 224.431 125.272C225.436 120.733 227.134 116.196 228.254 111.671C229.058 108.424 232.807 99.4666 231.25 96.6266C230.745 96.2709 230.783 96.3899 230.053 96.3844C230.238 95.9021 230.262 94.9824 230.073 94.4977C230.685 94.2947 231.286 94.2202 231.936 93.9769Z" fill="#F4E7E3"/>
<path d="M303.323 127.491C300.879 130.715 291.25 133.206 289.093 127.677C284.557 116.042 296.65 101.623 306.429 96.7273C306.334 97.5605 306.202 97.6064 306.477 98.2819L306.908 98.6292C303.61 101.277 300.416 104.212 298.131 107.913C295.792 111.701 291.804 121.483 295.127 125.354C296.217 126.206 296.735 126.481 298.065 126.962L300.036 126.56C301.282 126.954 302.005 125.97 302.687 126.114C302.819 126.644 302.895 127.136 303.323 127.491Z" fill="#F4E7E3"/>
<path d="M318.693 102.204C319.985 97.1111 320.408 94.3379 326.334 94.7487C324.148 102.635 315.484 120.603 317.415 128.005C319.123 127.084 320.171 126.49 321.724 125.323C321.501 125.922 321.234 126.427 321.38 127.039L321.731 127.54C320.217 129.32 318.403 130.002 316.269 130.576C315.01 130.227 314.549 129.979 313.472 129.318C312.572 126.04 313.02 120.505 313.731 117.153C312.999 117.759 311.802 119.03 311.079 119.752C311.491 119.122 311.642 119.122 311.634 118.497L311.178 118.202C313.594 114.563 318.003 106.495 318.693 102.204Z" fill="#F4E7E3"/>
<path d="M9.23019 116.754L9.43722 116.844C9.75182 120.999 9.32822 124.202 11.4695 128.005C14.3704 133.157 18.2871 135.306 24.0893 134.828C24.5142 134.792 24.9384 134.75 25.3622 134.702C24.5846 134.999 24.364 135.065 23.5469 135.184L23.2576 135.427C23.4125 135.92 23.9663 136.292 24.4027 136.581C20.1486 136.917 17.3261 136.847 13.059 136.004C11.1195 135.294 9.46486 134.693 7.88129 133.323C1.26284 127.598 5.16814 121.852 9.23019 116.754Z" fill="#F4E7E3"/>
<path d="M317.987 150.909C321.813 146.883 327.025 148.918 327.476 154.499C327.72 157.514 324.532 160.005 321.8 159.646C319.032 159.477 317.822 157.414 317.035 155.033L314.987 154.741C315.637 154.542 315.886 154.791 316.682 154.322L316.707 154.11C315.242 153.784 313.675 154.147 312.154 153.728C315.898 153.533 316.29 154.764 317.987 150.909Z" fill="#F4E7E3"/>
<path d="M74.8932 94.366C77.1113 94.1895 79.7615 93.9638 81.7552 95.3082C86.3224 98.9163 84.2574 103.255 80.6092 106.286C76.9096 109.36 74.5728 110.664 69.9421 111.84C70.1763 111.664 70.412 111.491 70.6495 111.32C70.7033 110.704 70.4449 110.617 69.9672 109.965C73.5801 107.332 78.8163 105.268 78.6602 99.7454C78.6334 98.8008 78.6856 98.1191 78.1949 97.2803C77.3255 96.6357 77.1092 96.5065 76.1043 96.1249C75.9969 95.4031 75.9894 95.3757 76.0558 94.6576C75.6397 94.472 75.336 94.443 74.8932 94.366Z" fill="#F4E7E3"/>
<path d="M33.8581 70.2909C37.8213 70.5083 43.5933 70.6317 45.7137 74.7099C44.9476 77.0757 43.9321 78.8098 43.0196 81.077C42.6019 82.1146 42.7083 83.556 42.3225 84.6183C41.8425 83.9465 41.8599 82.3229 41.6566 81.453C40.3316 75.78 36.8062 72.0085 30.8894 72.1199C31.2727 71.6071 32.2924 71.8817 33.085 71.5135C32.7441 71.3104 32.7779 71.4059 32.6986 71.1167C33.3216 70.8432 33.3949 70.7961 33.8581 70.2909Z" fill="#F4E7E3"/>
<path d="M187.713 94.3837C191.751 93.8065 197.042 93.7099 197.809 98.8558C196.658 101.971 195.257 102.63 192.197 100.979C191.392 99.4953 190.488 96.8891 189.038 96.4472C188.546 96.2969 187.009 96.3105 186.574 96.5254L185.909 96.5117C186.768 96.0594 187.777 96.3279 188.261 95.3981C188.131 94.8581 188.077 94.801 187.713 94.3837Z" fill="#F4E7E3"/>
<path d="M306.429 96.7275C310.372 94.545 314.219 93.5283 318.617 94.7941C318.918 95.8922 319.447 96.9674 318.506 97.7771C317.255 98.1068 316.002 97.0877 314.788 96.7964C314.113 96.6348 313.391 96.5802 312.702 96.5183C310.432 96.9082 308.946 97.4833 306.909 98.6294L306.477 98.2821C306.202 97.6066 306.335 97.5607 306.429 96.7275Z" fill="#F4E7E3"/>
<path d="M118.92 96.5848C119.606 96.9447 119.538 97.0475 119.899 97.7151L119.951 97.8132C116.195 99.8776 108.632 107.548 106.315 111.237C105.857 111.409 105.589 111.487 105.125 111.606L105.008 111.45C105.155 111.085 105.23 110.847 105.254 110.452C107.597 106.376 115.044 99.1727 118.92 96.5848Z" fill="#F4E7E3"/>
<path d="M211.722 111.5C213.889 108.282 219.063 101.554 222.163 99.2699L223.579 99.9504C220.242 103.199 216.797 106.184 214.253 110.208C213.423 111.521 212.583 112.859 211.722 114.149C211.318 113.414 210.899 113.375 211.006 112.51C211.526 112.197 211.686 112.112 211.722 111.5Z" fill="#F4E7E3"/>
<path d="M72.3919 126.345C74.2821 125.356 75.3991 124.772 76.9806 123.242C78.2477 122.017 79.5885 120.285 81.0269 119.339L81.2764 119.406L81.449 119.928C78.9856 124.169 77.1593 126.127 72.9432 128.557C72.4699 128.414 72.5991 128.525 72.3161 128.174C72.2261 127.493 72.3116 127.023 72.3919 126.345Z" fill="#F4E7E3"/>
<path d="M260.803 104.84C261.155 104.258 262.622 102.726 263.141 102.149C265.973 99.0038 267.99 96.455 271.996 94.8113C272.464 95.1402 272.495 95.0401 272.613 95.5097C272.462 95.8359 272.34 96.1068 272.208 96.4424C268.522 98.0776 267.181 99.3507 264.456 102.483C264.133 102.853 262.992 104.127 262.834 104.411L261.839 105.544C261.355 105.548 261.078 105.874 260.521 106.038L260.803 104.84Z" fill="#F4E7E3"/>
<path d="M124.074 127.346C125.678 126.239 127.216 125.199 128.5 123.692C130.051 121.871 131.736 119.11 133.647 117.654C132.471 121.787 128.253 126.528 125.043 129.22C124.241 128.613 124.261 128.341 124.074 127.346Z" fill="#F4E7E3"/>
<path d="M311.178 118.202L311.633 118.497C311.642 119.122 311.491 119.122 311.078 119.752C309.591 122.18 305.52 125.772 303.323 127.491C302.895 127.136 302.819 126.644 302.687 126.114C302.005 125.97 301.282 126.954 300.036 126.56C301.206 126.198 302.326 125.685 303.371 125.034C305.23 123.952 309.695 119.871 311.178 118.202Z" fill="#F4E7E3"/>
<path d="M64.6924 98.9169C67.7985 96.945 71.3172 94.9126 74.8935 94.366C75.3362 94.443 75.64 94.472 76.0561 94.6576C75.9896 95.3757 75.9972 95.4031 76.1046 96.1248C71.3781 95.717 69.549 97.3138 65.8698 100.224C65.2006 99.9688 64.9841 99.5169 64.6924 98.9169Z" fill="#F4E7E3"/>
<path d="M230.073 94.4978C230.262 94.9824 230.238 95.9021 230.053 96.3845C229.422 96.8014 228.91 96.8788 228.261 97.1906C226.573 97.9988 225.013 98.7113 223.579 99.9505L222.163 99.2701C224.094 97.2709 227.378 95.267 230.073 94.4978Z" fill="#F4E7E3"/>
<path d="M237.703 120.462L237.789 120.49C238.16 120.605 238.184 120.607 238.566 120.604L238.839 121.401C237.853 123.536 235.665 126.322 233.937 127.889C233.552 127.698 233.281 127.054 232.477 126.489C235.334 124.629 235.791 123.248 237.703 120.462Z" fill="#F4E7E3"/>
<path d="M60.5243 113.253C63.4225 112.873 67.3841 111.314 69.9673 109.965C70.4449 110.617 70.7034 110.704 70.6496 111.32C70.4121 111.491 70.1764 111.664 69.9422 111.84C67.3776 112.627 64.4403 113.624 61.9429 114.357C61.4658 114.306 61.021 114.258 60.5456 114.186C60.3277 113.788 60.4234 113.79 60.5243 113.253Z" fill="#F4E7E3"/>
<path d="M186.574 94.4379L187.713 94.3838C188.077 94.8011 188.131 94.8582 188.261 95.3982C187.777 96.3279 186.768 96.0595 185.909 96.5118C184.327 96.7857 182.81 97.5809 181.332 98.2562C180.729 98.1513 180.81 98.2552 180.394 97.8927C180.385 97.3821 180.641 97.1008 180.923 96.6596C183.129 95.7384 184.083 94.9994 186.574 94.4379Z" fill="#F4E7E3"/>
<path d="M321.724 125.323C323.408 123.707 325.785 119.35 327.081 118.654L327.316 118.787C327.4 120.292 324.033 124.989 323.016 126.158C322.598 126.629 322.17 127.09 321.731 127.54L321.38 127.039C321.234 126.427 321.5 125.922 321.724 125.323Z" fill="#F4E7E3"/>
<path d="M152.582 125.288C153.384 124.512 153.804 124.06 154.509 123.205C155.862 121.564 156.893 119.069 158.886 118.289C157.163 121.925 157.28 122.105 154.975 125.098C154.363 125.596 153.916 125.986 153.348 126.535L153.145 126.415C152.677 126.73 152.063 127.353 151.632 127.762C152.026 127.275 152.802 126.437 152.937 125.88L152.582 125.288Z" fill="#F4E7E3"/>
<path d="M24.4731 72.754C26.4909 71.0748 31.2602 70.1491 33.8583 70.291C33.3951 70.7962 33.3217 70.8433 32.6988 71.1168C32.7781 71.4059 32.7443 71.3105 33.0852 71.5135C32.2926 71.8818 31.2729 71.6072 30.8896 72.12C28.1819 72.9099 27.3541 73.1253 25.1795 74.9286C25.3475 74.3309 26.5417 73.2309 27.0524 73.046C27.14 72.5835 27.1646 72.5048 27.045 72.0537C26.4588 71.8725 25.4111 72.5582 24.7874 72.8839L24.4731 72.754Z" fill="#F4E7E3"/>
<path d="M25.3622 134.702C26.1524 134.333 27.3798 134.347 29.2378 133.352C29.9066 133.765 29.9541 133.641 30.2065 134.246C30.0551 134.737 29.9936 134.799 29.6659 135.195C27.992 135.723 26.1222 136.289 24.4027 136.581C23.9663 136.292 23.4125 135.92 23.2576 135.427L23.5469 135.184C24.364 135.065 24.5846 134.999 25.3622 134.702Z" fill="#F4E7E3"/>
<path d="M187.828 125.384C190.227 123.875 191.942 121.418 192.907 120.869L193.058 121.025C192.514 122.772 190.435 125.256 188.883 126.239C188.409 125.948 188.177 125.842 187.828 125.384Z" fill="#F4E7E3"/>
<path d="M187.828 125.384C188.177 125.842 188.409 125.948 188.883 126.239C188.729 126.37 188.029 126.94 187.943 127.054C187.223 127.554 186.5 128.046 185.772 128.531C185.064 127.676 185.437 126.989 185.988 126.228L186.06 126.158C186.615 126.033 187.302 125.649 187.828 125.384Z" fill="#F4E7E3"/>
<path d="M237.703 120.462C238.2 119.722 239.322 118.466 240.218 118.292C240.017 119.341 239.389 120.491 238.839 121.401L238.566 120.604C238.184 120.608 238.16 120.605 237.789 120.49L237.703 120.462Z" fill="#F4E7E3"/>
<path d="M67.0858 169.38V167.94H75.7258V169.38H67.0858ZM74.6998 162.9H76.2298V175.5H74.6998V162.9ZM66.2398 162.9H67.7698V175.5H66.2398V162.9ZM79.665 172.944C79.665 173.256 79.737 173.526 79.881 173.754C80.037 173.982 80.247 174.156 80.511 174.276C80.787 174.384 81.099 174.438 81.447 174.438C81.891 174.438 82.287 174.348 82.635 174.168C82.995 173.988 83.277 173.736 83.481 173.412C83.697 173.076 83.805 172.692 83.805 172.26L84.093 173.34C84.093 173.868 83.931 174.306 83.607 174.654C83.295 175.002 82.905 175.26 82.437 175.428C81.981 175.596 81.525 175.68 81.069 175.68C80.565 175.68 80.091 175.578 79.647 175.374C79.215 175.158 78.867 174.852 78.603 174.456C78.339 174.06 78.207 173.58 78.207 173.016C78.207 172.212 78.489 171.57 79.053 171.09C79.629 170.598 80.427 170.352 81.447 170.352C82.047 170.352 82.545 170.424 82.941 170.568C83.349 170.7 83.673 170.856 83.913 171.036C84.153 171.204 84.315 171.342 84.399 171.45V172.296C83.979 172.008 83.547 171.804 83.103 171.684C82.659 171.552 82.185 171.486 81.681 171.486C81.213 171.486 80.829 171.546 80.529 171.666C80.241 171.786 80.025 171.954 79.881 172.17C79.737 172.386 79.665 172.644 79.665 172.944ZM79.449 169.128L78.747 168.066C79.059 167.838 79.485 167.61 80.025 167.382C80.577 167.154 81.237 167.04 82.005 167.04C82.653 167.04 83.217 167.142 83.697 167.346C84.189 167.538 84.567 167.82 84.831 168.192C85.107 168.564 85.245 169.02 85.245 169.56V175.5H83.805V169.758C83.805 169.47 83.757 169.236 83.661 169.056C83.565 168.864 83.427 168.714 83.247 168.606C83.079 168.498 82.881 168.42 82.653 168.372C82.425 168.324 82.185 168.3 81.933 168.3C81.525 168.3 81.153 168.348 80.817 168.444C80.493 168.54 80.217 168.654 79.989 168.786C79.761 168.918 79.581 169.032 79.449 169.128ZM92.993 170.46C92.993 169.776 92.843 169.26 92.543 168.912C92.243 168.564 91.805 168.39 91.229 168.39C90.809 168.39 90.437 168.48 90.113 168.66C89.801 168.828 89.555 169.068 89.375 169.38C89.207 169.692 89.123 170.052 89.123 170.46V175.5H87.683V167.22H89.123V168.516C89.399 168.012 89.741 167.64 90.149 167.4C90.569 167.16 91.049 167.04 91.589 167.04C92.465 167.04 93.155 167.334 93.659 167.922C94.175 168.498 94.433 169.284 94.433 170.28V175.5H92.993V170.46ZM103.35 161.46H104.79V175.5H103.35V161.46ZM96.42 171.36C96.42 170.46 96.606 169.692 96.978 169.056C97.35 168.408 97.848 167.91 98.472 167.562C99.096 167.214 99.78 167.04 100.524 167.04C101.22 167.04 101.826 167.214 102.342 167.562C102.858 167.91 103.26 168.408 103.548 169.056C103.848 169.692 103.998 170.46 103.998 171.36C103.998 172.248 103.848 173.016 103.548 173.664C103.26 174.312 102.858 174.81 102.342 175.158C101.826 175.506 101.22 175.68 100.524 175.68C99.78 175.68 99.096 175.506 98.472 175.158C97.848 174.81 97.35 174.312 96.978 173.664C96.606 173.016 96.42 172.248 96.42 171.36ZM97.878 171.36C97.878 171.996 98.004 172.536 98.256 172.98C98.52 173.424 98.868 173.76 99.3 173.988C99.732 174.216 100.2 174.33 100.704 174.33C101.124 174.33 101.538 174.216 101.946 173.988C102.354 173.76 102.69 173.424 102.954 172.98C103.218 172.536 103.35 171.996 103.35 171.36C103.35 170.724 103.218 170.184 102.954 169.74C102.69 169.296 102.354 168.96 101.946 168.732C101.538 168.504 101.124 168.39 100.704 168.39C100.2 168.39 99.732 168.504 99.3 168.732C98.868 168.96 98.52 169.296 98.256 169.74C98.004 170.184 97.878 170.724 97.878 171.36ZM118.746 170.28V175.5H117.306V170.46C117.306 169.752 117.174 169.23 116.91 168.894C116.658 168.558 116.262 168.39 115.722 168.39C115.326 168.39 114.984 168.474 114.696 168.642C114.408 168.798 114.186 169.032 114.03 169.344C113.874 169.656 113.796 170.028 113.796 170.46V175.5H112.356V170.46C112.356 169.752 112.224 169.23 111.96 168.894C111.708 168.558 111.312 168.39 110.772 168.39C110.376 168.39 110.034 168.474 109.746 168.642C109.458 168.798 109.236 169.032 109.08 169.344C108.924 169.656 108.846 170.028 108.846 170.46V175.5H107.406V167.22H108.846V168.426C109.098 167.958 109.41 167.61 109.782 167.382C110.166 167.154 110.616 167.04 111.132 167.04C111.708 167.04 112.2 167.178 112.608 167.454C113.028 167.718 113.334 168.096 113.526 168.588C113.814 168.072 114.174 167.688 114.606 167.436C115.038 167.172 115.53 167.04 116.082 167.04C116.646 167.04 117.126 167.166 117.522 167.418C117.918 167.67 118.218 168.042 118.422 168.534C118.638 169.014 118.746 169.596 118.746 170.28ZM122.099 172.944C122.099 173.256 122.171 173.526 122.315 173.754C122.471 173.982 122.681 174.156 122.945 174.276C123.221 174.384 123.533 174.438 123.881 174.438C124.325 174.438 124.721 174.348 125.069 174.168C125.429 173.988 125.711 173.736 125.915 173.412C126.131 173.076 126.239 172.692 126.239 172.26L126.527 173.34C126.527 173.868 126.365 174.306 126.041 174.654C125.729 175.002 125.339 175.26 124.871 175.428C124.415 175.596 123.959 175.68 123.503 175.68C122.999 175.68 122.525 175.578 122.081 175.374C121.649 175.158 121.301 174.852 121.037 174.456C120.773 174.06 120.641 173.58 120.641 173.016C120.641 172.212 120.923 171.57 121.487 171.09C122.063 170.598 122.861 170.352 123.881 170.352C124.481 170.352 124.979 170.424 125.375 170.568C125.783 170.7 126.107 170.856 126.347 171.036C126.587 171.204 126.749 171.342 126.833 171.45V172.296C126.413 172.008 125.981 171.804 125.537 171.684C125.093 171.552 124.619 171.486 124.115 171.486C123.647 171.486 123.263 171.546 122.963 171.666C122.675 171.786 122.459 171.954 122.315 172.17C122.171 172.386 122.099 172.644 122.099 172.944ZM121.883 169.128L121.181 168.066C121.493 167.838 121.919 167.61 122.459 167.382C123.011 167.154 123.671 167.04 124.439 167.04C125.087 167.04 125.651 167.142 126.131 167.346C126.623 167.538 127.001 167.82 127.265 168.192C127.541 168.564 127.679 169.02 127.679 169.56V175.5H126.239V169.758C126.239 169.47 126.191 169.236 126.095 169.056C125.999 168.864 125.861 168.714 125.681 168.606C125.513 168.498 125.315 168.42 125.087 168.372C124.859 168.324 124.619 168.3 124.367 168.3C123.959 168.3 123.587 168.348 123.251 168.444C122.927 168.54 122.651 168.654 122.423 168.786C122.195 168.918 122.015 169.032 121.883 169.128ZM136.327 161.46H137.767V175.5H136.327V161.46ZM129.397 171.36C129.397 170.46 129.583 169.692 129.955 169.056C130.327 168.408 130.825 167.91 131.449 167.562C132.073 167.214 132.757 167.04 133.501 167.04C134.197 167.04 134.803 167.214 135.319 167.562C135.835 167.91 136.237 168.408 136.525 169.056C136.825 169.692 136.975 170.46 136.975 171.36C136.975 172.248 136.825 173.016 136.525 173.664C136.237 174.312 135.835 174.81 135.319 175.158C134.803 175.506 134.197 175.68 133.501 175.68C132.757 175.68 132.073 175.506 131.449 175.158C130.825 174.81 130.327 174.312 129.955 173.664C129.583 173.016 129.397 172.248 129.397 171.36ZM130.855 171.36C130.855 171.996 130.981 172.536 131.233 172.98C131.497 173.424 131.845 173.76 132.277 173.988C132.709 174.216 133.177 174.33 133.681 174.33C134.101 174.33 134.515 174.216 134.923 173.988C135.331 173.76 135.667 173.424 135.931 172.98C136.195 172.536 136.327 171.996 136.327 171.36C136.327 170.724 136.195 170.184 135.931 169.74C135.667 169.296 135.331 168.96 134.923 168.732C134.515 168.504 134.101 168.39 133.681 168.39C133.177 168.39 132.709 168.504 132.277 168.732C131.845 168.96 131.497 169.296 131.233 169.74C130.981 170.184 130.855 170.724 130.855 171.36ZM143.586 175.68C142.818 175.68 142.134 175.5 141.534 175.14C140.946 174.768 140.484 174.258 140.148 173.61C139.824 172.962 139.662 172.212 139.662 171.36C139.662 170.496 139.83 169.74 140.166 169.092C140.514 168.444 140.994 167.94 141.606 167.58C142.23 167.22 142.95 167.04 143.766 167.04C144.582 167.04 145.278 167.214 145.854 167.562C146.442 167.898 146.892 168.384 147.204 169.02C147.516 169.656 147.672 170.412 147.672 171.288C147.672 171.372 147.666 171.462 147.654 171.558C147.654 171.642 147.654 171.696 147.654 171.72H140.58V170.496H146.52L145.944 171.324C145.98 171.264 146.016 171.174 146.052 171.054C146.088 170.922 146.106 170.814 146.106 170.73C146.106 170.238 146.004 169.812 145.8 169.452C145.608 169.092 145.338 168.81 144.99 168.606C144.642 168.402 144.234 168.3 143.766 168.3C143.214 168.3 142.74 168.42 142.344 168.66C141.96 168.888 141.66 169.224 141.444 169.668C141.24 170.1 141.132 170.634 141.12 171.27C141.12 171.918 141.222 172.47 141.426 172.926C141.63 173.382 141.93 173.73 142.326 173.97C142.722 174.21 143.202 174.33 143.766 174.33C144.33 174.33 144.828 174.21 145.26 173.97C145.692 173.718 146.058 173.34 146.358 172.836L147.528 173.574C147.096 174.27 146.55 174.798 145.89 175.158C145.242 175.506 144.474 175.68 143.586 175.68ZM156.338 168.84V167.994H158.372C158.792 167.994 159.17 167.922 159.506 167.778C159.842 167.634 160.106 167.424 160.298 167.148C160.49 166.872 160.586 166.536 160.586 166.14C160.586 165.54 160.376 165.078 159.956 164.754C159.536 164.418 159.008 164.25 158.372 164.25H156.662V174.15H158.552C159.092 174.15 159.566 174.054 159.974 173.862C160.394 173.67 160.718 173.394 160.946 173.034C161.186 172.674 161.306 172.236 161.306 171.72C161.306 171.336 161.24 170.994 161.108 170.694C160.976 170.394 160.784 170.142 160.532 169.938C160.292 169.734 160.004 169.584 159.668 169.488C159.332 169.38 158.96 169.326 158.552 169.326H156.338V168.48H158.552C159.164 168.48 159.728 168.546 160.244 168.678C160.76 168.81 161.21 169.014 161.594 169.29C161.99 169.554 162.296 169.896 162.512 170.316C162.728 170.736 162.836 171.234 162.836 171.81C162.836 172.638 162.644 173.328 162.26 173.88C161.888 174.42 161.378 174.828 160.73 175.104C160.094 175.368 159.368 175.5 158.552 175.5H155.132V162.9H158.372C159.128 162.9 159.782 163.014 160.334 163.242C160.898 163.47 161.336 163.818 161.648 164.286C161.96 164.742 162.116 165.33 162.116 166.05C162.116 166.638 161.96 167.142 161.648 167.562C161.336 167.982 160.898 168.3 160.334 168.516C159.782 168.732 159.128 168.84 158.372 168.84H156.338ZM168.283 175.68C167.515 175.68 166.831 175.5 166.231 175.14C165.643 174.768 165.181 174.258 164.845 173.61C164.521 172.962 164.359 172.212 164.359 171.36C164.359 170.496 164.527 169.74 164.863 169.092C165.211 168.444 165.691 167.94 166.303 167.58C166.927 167.22 167.647 167.04 168.463 167.04C169.279 167.04 169.975 167.214 170.551 167.562C171.139 167.898 171.589 168.384 171.901 169.02C172.213 169.656 172.369 170.412 172.369 171.288C172.369 171.372 172.363 171.462 172.351 171.558C172.351 171.642 172.351 171.696 172.351 171.72H165.277V170.496H171.217L170.641 171.324C170.677 171.264 170.713 171.174 170.749 171.054C170.785 170.922 170.803 170.814 170.803 170.73C170.803 170.238 170.701 169.812 170.497 169.452C170.305 169.092 170.035 168.81 169.687 168.606C169.339 168.402 168.931 168.3 168.463 168.3C167.911 168.3 167.437 168.42 167.041 168.66C166.657 168.888 166.357 169.224 166.141 169.668C165.937 170.1 165.829 170.634 165.817 171.27C165.817 171.918 165.919 172.47 166.123 172.926C166.327 173.382 166.627 173.73 167.023 173.97C167.419 174.21 167.899 174.33 168.463 174.33C169.027 174.33 169.525 174.21 169.957 173.97C170.389 173.718 170.755 173.34 171.055 172.836L172.225 173.574C171.793 174.27 171.247 174.798 170.587 175.158C169.939 175.506 169.171 175.68 168.283 175.68ZM174.991 172.944C174.991 173.256 175.063 173.526 175.207 173.754C175.363 173.982 175.573 174.156 175.837 174.276C176.113 174.384 176.425 174.438 176.773 174.438C177.217 174.438 177.613 174.348 177.961 174.168C178.321 173.988 178.603 173.736 178.807 173.412C179.023 173.076 179.131 172.692 179.131 172.26L179.419 173.34C179.419 173.868 179.257 174.306 178.933 174.654C178.621 175.002 178.231 175.26 177.763 175.428C177.307 175.596 176.851 175.68 176.395 175.68C175.891 175.68 175.417 175.578 174.973 175.374C174.541 175.158 174.193 174.852 173.929 174.456C173.665 174.06 173.533 173.58 173.533 173.016C173.533 172.212 173.815 171.57 174.379 171.09C174.955 170.598 175.753 170.352 176.773 170.352C177.373 170.352 177.871 170.424 178.267 170.568C178.675 170.7 178.999 170.856 179.239 171.036C179.479 171.204 179.641 171.342 179.725 171.45V172.296C179.305 172.008 178.873 171.804 178.429 171.684C177.985 171.552 177.511 171.486 177.007 171.486C176.539 171.486 176.155 171.546 175.855 171.666C175.567 171.786 175.351 171.954 175.207 172.17C175.063 172.386 174.991 172.644 174.991 172.944ZM174.775 169.128L174.073 168.066C174.385 167.838 174.811 167.61 175.351 167.382C175.903 167.154 176.563 167.04 177.331 167.04C177.979 167.04 178.543 167.142 179.023 167.346C179.515 167.538 179.893 167.82 180.157 168.192C180.433 168.564 180.571 169.02 180.571 169.56V175.5H179.131V169.758C179.131 169.47 179.083 169.236 178.987 169.056C178.891 168.864 178.753 168.714 178.573 168.606C178.405 168.498 178.207 168.42 177.979 168.372C177.751 168.324 177.511 168.3 177.259 168.3C176.851 168.3 176.479 168.348 176.143 168.444C175.819 168.54 175.543 168.654 175.315 168.786C175.087 168.918 174.907 169.032 174.775 169.128ZM189.219 161.46H190.659V175.5H189.219V161.46ZM182.289 171.36C182.289 170.46 182.475 169.692 182.847 169.056C183.219 168.408 183.717 167.91 184.341 167.562C184.965 167.214 185.649 167.04 186.393 167.04C187.089 167.04 187.695 167.214 188.211 167.562C188.727 167.91 189.129 168.408 189.417 169.056C189.717 169.692 189.867 170.46 189.867 171.36C189.867 172.248 189.717 173.016 189.417 173.664C189.129 174.312 188.727 174.81 188.211 175.158C187.695 175.506 187.089 175.68 186.393 175.68C185.649 175.68 184.965 175.506 184.341 175.158C183.717 174.81 183.219 174.312 182.847 173.664C182.475 173.016 182.289 172.248 182.289 171.36ZM183.747 171.36C183.747 171.996 183.873 172.536 184.125 172.98C184.389 173.424 184.737 173.76 185.169 173.988C185.601 174.216 186.069 174.33 186.573 174.33C186.993 174.33 187.407 174.216 187.815 173.988C188.223 173.76 188.559 173.424 188.823 172.98C189.087 172.536 189.219 171.996 189.219 171.36C189.219 170.724 189.087 170.184 188.823 169.74C188.559 169.296 188.223 168.96 187.815 168.732C187.407 168.504 186.993 168.39 186.573 168.39C186.069 168.39 185.601 168.504 185.169 168.732C184.737 168.96 184.389 169.296 184.125 169.74C183.873 170.184 183.747 170.724 183.747 171.36ZM196.479 175.68C195.711 175.68 195.027 175.5 194.427 175.14C193.839 174.768 193.377 174.258 193.041 173.61C192.717 172.962 192.555 172.212 192.555 171.36C192.555 170.496 192.723 169.74 193.059 169.092C193.407 168.444 193.887 167.94 194.499 167.58C195.123 167.22 195.843 167.04 196.659 167.04C197.475 167.04 198.171 167.214 198.747 167.562C199.335 167.898 199.785 168.384 200.097 169.02C200.409 169.656 200.565 170.412 200.565 171.288C200.565 171.372 200.559 171.462 200.547 171.558C200.547 171.642 200.547 171.696 200.547 171.72H193.473V170.496H199.413L198.837 171.324C198.873 171.264 198.909 171.174 198.945 171.054C198.981 170.922 198.999 170.814 198.999 170.73C198.999 170.238 198.897 169.812 198.693 169.452C198.501 169.092 198.231 168.81 197.883 168.606C197.535 168.402 197.127 168.3 196.659 168.3C196.107 168.3 195.633 168.42 195.237 168.66C194.853 168.888 194.553 169.224 194.337 169.668C194.133 170.1 194.025 170.634 194.013 171.27C194.013 171.918 194.115 172.47 194.319 172.926C194.523 173.382 194.823 173.73 195.219 173.97C195.615 174.21 196.095 174.33 196.659 174.33C197.223 174.33 197.721 174.21 198.153 173.97C198.585 173.718 198.951 173.34 199.251 172.836L200.421 173.574C199.989 174.27 199.443 174.798 198.783 175.158C198.135 175.506 197.367 175.68 196.479 175.68ZM208.748 161.46H210.188V175.5H208.748V161.46ZM201.818 171.36C201.818 170.46 202.004 169.692 202.376 169.056C202.748 168.408 203.246 167.91 203.87 167.562C204.494 167.214 205.178 167.04 205.922 167.04C206.618 167.04 207.224 167.214 207.74 167.562C208.256 167.91 208.658 168.408 208.946 169.056C209.246 169.692 209.396 170.46 209.396 171.36C209.396 172.248 209.246 173.016 208.946 173.664C208.658 174.312 208.256 174.81 207.74 175.158C207.224 175.506 206.618 175.68 205.922 175.68C205.178 175.68 204.494 175.506 203.87 175.158C203.246 174.81 202.748 174.312 202.376 173.664C202.004 173.016 201.818 172.248 201.818 171.36ZM203.276 171.36C203.276 171.996 203.402 172.536 203.654 172.98C203.918 173.424 204.266 173.76 204.698 173.988C205.13 174.216 205.598 174.33 206.102 174.33C206.522 174.33 206.936 174.216 207.344 173.988C207.752 173.76 208.088 173.424 208.352 172.98C208.616 172.536 208.748 171.996 208.748 171.36C208.748 170.724 208.616 170.184 208.352 169.74C208.088 169.296 207.752 168.96 207.344 168.732C206.936 168.504 206.522 168.39 206.102 168.39C205.598 168.39 205.13 168.504 204.698 168.732C204.266 168.96 203.918 169.296 203.654 169.74C203.402 170.184 203.276 170.724 203.276 171.36ZM215.645 177.372C215.777 177.576 215.969 177.732 216.221 177.84C216.461 177.96 216.743 178.02 217.067 178.02C217.343 178.02 217.613 177.894 217.877 177.642C218.153 177.402 218.291 176.988 218.291 176.4V162.9H219.731V176.58C219.731 177.072 219.665 177.498 219.533 177.858C219.413 178.218 219.233 178.518 218.993 178.758C218.753 178.998 218.459 179.172 218.111 179.28C217.775 179.4 217.397 179.46 216.977 179.46C216.665 179.46 216.365 179.406 216.077 179.298C215.777 179.202 215.525 179.082 215.321 178.938C215.105 178.806 214.949 178.68 214.853 178.56L215.645 177.372ZM225.729 175.68C224.961 175.68 224.277 175.5 223.677 175.14C223.089 174.768 222.627 174.258 222.291 173.61C221.967 172.962 221.805 172.212 221.805 171.36C221.805 170.496 221.973 169.74 222.309 169.092C222.657 168.444 223.137 167.94 223.749 167.58C224.373 167.22 225.093 167.04 225.909 167.04C226.725 167.04 227.421 167.214 227.997 167.562C228.585 167.898 229.035 168.384 229.347 169.02C229.659 169.656 229.815 170.412 229.815 171.288C229.815 171.372 229.809 171.462 229.797 171.558C229.797 171.642 229.797 171.696 229.797 171.72H222.723V170.496H228.663L228.087 171.324C228.123 171.264 228.159 171.174 228.195 171.054C228.231 170.922 228.249 170.814 228.249 170.73C228.249 170.238 228.147 169.812 227.943 169.452C227.751 169.092 227.481 168.81 227.133 168.606C226.785 168.402 226.377 168.3 225.909 168.3C225.357 168.3 224.883 168.42 224.487 168.66C224.103 168.888 223.803 169.224 223.587 169.668C223.383 170.1 223.275 170.634 223.263 171.27C223.263 171.918 223.365 172.47 223.569 172.926C223.773 173.382 224.073 173.73 224.469 173.97C224.865 174.21 225.345 174.33 225.909 174.33C226.473 174.33 226.971 174.21 227.403 173.97C227.835 173.718 228.201 173.34 228.501 172.836L229.671 173.574C229.239 174.27 228.693 174.798 228.033 175.158C227.385 175.506 226.617 175.68 225.729 175.68ZM230.265 167.22H231.885L233.955 172.602L236.205 166.59L238.617 172.638L240.705 167.22H242.325L238.725 176.13L236.223 170.1L233.865 176.13L230.265 167.22ZM246.7 175.68C245.932 175.68 245.248 175.5 244.648 175.14C244.06 174.768 243.598 174.258 243.262 173.61C242.938 172.962 242.776 172.212 242.776 171.36C242.776 170.496 242.944 169.74 243.28 169.092C243.628 168.444 244.108 167.94 244.72 167.58C245.344 167.22 246.064 167.04 246.88 167.04C247.696 167.04 248.392 167.214 248.968 167.562C249.556 167.898 250.006 168.384 250.318 169.02C250.63 169.656 250.786 170.412 250.786 171.288C250.786 171.372 250.78 171.462 250.768 171.558C250.768 171.642 250.768 171.696 250.768 171.72H243.694V170.496H249.634L249.058 171.324C249.094 171.264 249.13 171.174 249.166 171.054C249.202 170.922 249.22 170.814 249.22 170.73C249.22 170.238 249.118 169.812 248.914 169.452C248.722 169.092 248.452 168.81 248.104 168.606C247.756 168.402 247.348 168.3 246.88 168.3C246.328 168.3 245.854 168.42 245.458 168.66C245.074 168.888 244.774 169.224 244.558 169.668C244.354 170.1 244.246 170.634 244.234 171.27C244.234 171.918 244.336 172.47 244.54 172.926C244.744 173.382 245.044 173.73 245.44 173.97C245.836 174.21 246.316 174.33 246.88 174.33C247.444 174.33 247.942 174.21 248.374 173.97C248.806 173.718 249.172 173.34 249.472 172.836L250.642 173.574C250.21 174.27 249.664 174.798 249.004 175.158C248.356 175.506 247.588 175.68 246.7 175.68ZM252.759 161.46H254.199V175.5H252.759V161.46ZM258.348 167.22V175.5H256.908V167.22H258.348ZM260.85 168.804C260.658 168.66 260.484 168.558 260.328 168.498C260.172 168.426 259.974 168.39 259.734 168.39C259.374 168.39 259.092 168.48 258.888 168.66C258.684 168.84 258.54 169.086 258.456 169.398C258.384 169.71 258.348 170.064 258.348 170.46H257.7C257.7 169.8 257.814 169.218 258.042 168.714C258.282 168.198 258.588 167.79 258.96 167.49C259.332 167.19 259.71 167.04 260.094 167.04C260.394 167.04 260.67 167.082 260.922 167.166C261.186 167.238 261.426 167.388 261.642 167.616L260.85 168.804ZM270.192 167.22L264.792 179.46H263.172L265.44 174.33L262.272 167.22H263.982L266.61 173.7L266.016 173.628L268.572 167.22H270.192Z" fill="#C8B8B4"/>
<circle cx="171.5" cy="13.5" r="10" fill="#F4E7E3"/>
<circle cx="128.5" cy="45.5" r="8" fill="#E8B7B1"/>
<circle cx="215.5" cy="43.5" r="8" fill="#CC909A"/>
<circle cx="137.25" cy="29.25" r="7.75" fill="#ECC0BB"/>
<circle cx="206.25" cy="27.25" r="7.75" fill="#ECC0BB"/>
<circle cx="153" cy="19" r="7.5" fill="#F3CFCB"/>
<circle cx="191" cy="18" r="7.5" fill="#F3CFCB"/>
</g>


</g>
</svg>